<?xml version="1.0" encoding="UTF-8"?>
<!DOCTYPE svg PUBLIC "-//W3C//DTD SVG 1.1//EN" "http://www.w3.org/Graphics/SVG/1.1/DTD/svg11.dtd">
<svg xmlns="http://www.w3.org/2000/svg" version="1.1" width="100px" height="100px" style="shape-rendering:geometricPrecision; text-rendering:geometricPrecision; image-rendering:optimizeQuality; fill-rule:evenodd; clip-rule:evenodd" xmlns:xlink="http://www.w3.org/1999/xlink">
<g><path style="opacity:0.939" fill="#fefffe" d="M -0.5,17.5 C 13.1707,17.3334 26.8374,17.5001 40.5,18C 44.1349,18.8164 47.1349,20.6498 49.5,23.5C 51.8651,20.6498 54.8651,18.8164 58.5,18C 72.1626,17.5001 85.8293,17.3334 99.5,17.5C 99.5,21.1667 99.5,24.8333 99.5,28.5C 87.7974,28.2321 76.1308,28.7321 64.5,30C 59.0771,34.8071 59.4104,39.1404 65.5,43C 76.7972,44.2586 88.1305,44.7586 99.5,44.5C 99.5,56.8333 99.5,69.1667 99.5,81.5C 94.8333,81.5 90.1667,81.5 85.5,81.5C 85.5,72.8333 85.5,64.1667 85.5,55.5C 82.0217,55.1842 78.6883,55.6842 75.5,57C 69.4448,64.7224 63.7781,72.7224 58.5,81C 52.5,81.6667 46.5,81.6667 40.5,81C 35.0791,72.8244 29.4124,64.8244 23.5,57C 20.2744,55.8011 16.941,55.3011 13.5,55.5C 13.5,64.1667 13.5,72.8333 13.5,81.5C 8.83333,81.5 4.16667,81.5 -0.5,81.5C -0.5,60.1667 -0.5,38.8333 -0.5,17.5 Z M 13.5,28.5 C 20.5071,28.8339 27.5071,29.3339 34.5,30C 39.9523,34.7671 39.619,39.1004 33.5,43C 26.8444,43.7112 20.1777,44.2112 13.5,44.5C 13.5,39.1667 13.5,33.8333 13.5,28.5 Z M 48.5,47.5 C 52.5011,50.1673 56.8345,52.3339 61.5,54C 56.6445,57.3553 52.6445,61.522 49.5,66.5C 46.4206,61.914 42.754,57.7474 38.5,54C 42.4109,52.5558 45.7442,50.3891 48.5,47.5 Z"/></g>
</svg>
